<svg data-v-0dd9719b="" version="1.0" xmlns="http://www.w3.org/2000/svg" xmlns:xlink="http://www.w3.org/1999/xlink" width="100%" height="100%" viewBox="0 0 340.000000 250.000000" preserveAspectRatio="xMidYMid meet" color-interpolation-filters="sRGB" style="margin: auto;"> <rect data-v-0dd9719b="" x="0" y="0" width="100%" height="100%" fill="#fff" fill-opacity="1" class="background"></rect> <rect data-v-0dd9719b="" x="0" y="0" width="100%" height="100%" fill="url(#watermark)" fill-opacity="1" class="watermarklayer"></rect> <g data-v-0dd9719b="" fill="#ffb41d" class="icon-text-wrapper icon-svg-group iconsvg" transform="translate(76.2449951171875,98.4395751953125)"><g class="iconsvg-imagesvg" transform="translate(0,0)"><g><rect fill="#ffb41d" fill-opacity="0" stroke-width="2" x="0" y="0" width="60" height="53.12084993359894" class="image-rect"></rect> <svg x="0" y="0" width="60" height="53.12084993359894" filtersec="colorsb9033402483" class="image-svg-svg primary" style="overflow: visible;"><svg version="1.1" id="图层_1" xmlns="http://www.w3.org/2000/svg" xmlns:xlink="http://www.w3.org/1999/xlink" x="0px" y="0px" viewBox="11 5.119997024536133 980 867.6400146484375" enable-background="new 0 0 1000 877" xml:space="preserve">
<g>
	<path fill="none" d="M601.75,245.51c-15.79,0-31.31-0.48-46.64-1.43v516.77c-0.02,0-0.06-0.02-0.09-0.02v1.82
		c15.07,1.34,30.66,1.99,46.73,1.99c51.27,0,104.36-6.83,157.81-20.31c43.29-10.92,85.09-25.91,123.32-44.13V197.88
		c-22.92,7.76-46.43,14.7-70.45,20.76C741.7,236.48,670.81,245.51,601.75,245.51z"></path>
	<path fill="none" d="M400.25,113.24c-51.27,0-104.36,6.83-157.83,20.31c-43.27,10.92-85.07,25.91-123.3,44.13V680
		c22.92-7.78,46.43-14.7,70.45-20.76c70.73-17.84,141.59-26.88,210.68-26.88c15.79,0,31.31,0.48,46.64,1.43V117.02
		c0.02,0,0.06,0.02,0.09,0.02v-1.82C431.91,113.89,416.32,113.24,400.25,113.24z"></path>
	<path fill="#FFB41D" d="M446.9,633.79c-15.33-0.95-30.86-1.43-46.64-1.43c-69.09,0-139.95,9.04-210.68,26.88
		c-24.02,6.05-47.53,12.97-70.45,20.76V177.68c38.23-18.23,80.03-33.21,123.3-44.13c53.48-13.47,106.56-20.31,157.83-20.31
		c16.07,0,31.66,0.65,46.73,1.99v1.82c17.19,4.95,35.25,9.04,54.06,12.22c17.41,2.94,35.46,5.1,54.06,6.44V25.47
		C508.96,12.15,456.48,5.12,400.25,5.12c-58.36,0-120.75,7.57-184.26,23.59C139.08,48.09,69.45,77.6,11,113.43v735.39
		c58.45-35.85,128.08-65.35,205-84.74c63.51-16,125.9-23.59,184.26-23.59c15.87,0,31.44,0.56,46.64,1.69V633.79z"></path>
	<path fill="#061E5C" d="M786,113.8c-63.51,16-125.9,23.59-184.26,23.59c-15.87,0-31.44-0.56-46.64-1.69
		c-18.6-1.34-36.65-3.5-54.06-6.44c-18.81-3.18-36.87-7.27-54.06-12.22c-0.02,0-0.06-0.02-0.09-0.02v516.77v108.38v110.24
		c46.15,13.32,98.61,20.35,154.85,20.35c58.34,0,120.75-7.57,184.26-23.59c76.92-19.38,146.52-48.89,205-84.72V29.06
		C932.53,64.91,862.92,94.4,786,113.8z M882.88,700.2c-38.23,18.23-80.03,33.21-123.32,44.13
		c-53.45,13.47-106.54,20.31-157.81,20.31c-16.07,0-31.66-0.65-46.73-1.99v-1.82c0.02,0,0.06,0.02,0.09,0.02V244.09
		c15.33,0.95,30.86,1.43,46.64,1.43c69.07,0,139.95-9.04,210.68-26.88c24.02-6.05,47.53-13,70.45-20.76V700.2z"></path>
</g>
</svg></svg> <!----></g></g> <g transform="translate(67,1.4654254913330078)"><g data-gra="path-name" fill-rule="" class="tp-name iconsvg-namesvg"><g transform="scale(1)"><g><path d="M32.89-47.26L32.89-44.46 19.24-44.46 19.24 2.93 16.32 2.93 16.32-44.46 2.54-44.46 2.54-47.26 32.89-47.26ZM67.6 2.93L61.49-13.78 39.98-13.78 33.87 2.93 30.94 2.93 49.59-47.26 52.07-47.26 70.78 2.93 67.6 2.93ZM41.02-16.64L60.45-16.64 50.77-43.23 41.02-16.64ZM123.05-47.26L123.05 2.93 120.12 2.93 120.12-40.69 101.27 2.93 98.87 2.93 80.08-40.56 80.08 2.93 77.35 2.93 77.35-47.26 80.34-47.26 100.17-1.43 119.93-47.26 123.05-47.26Z" transform="translate(-2.5399999618530273, 47.2599983215332)"></path></g> <!----> <!----> <!----> <!----> <!----> <!----> <!----></g></g> <!----></g></g><defs v-gra="od"></defs></svg>